<?xml version="1.0" encoding="utf-8"?>
<svg viewBox="46.025 80.11 408.026 318.738" xmlns="http://www.w3.org/2000/svg">
  <path d="M 245.834 617.87 C 245.834 624.061 240.826 629.069 234.635 629.069 C 228.444 629.069 223.436 624.061 223.436 617.87 C 223.436 599.179 196.584 570.499 153.206 556.761 C 149.007 555.437 145.975 551.761 145.464 547.386 C 144.948 543.011 147.05 538.745 150.835 536.48 C 178.179 520.085 194.507 491.375 194.507 459.668 C 194.507 410.262 154.312 370.066 104.905 370.066 C 55.498 370.066 15.303 410.261 15.303 459.668 C 15.303 491.375 31.631 520.086 58.967 536.48 C 62.752 538.746 64.85 543.011 64.338 547.386 C 63.822 551.761 60.795 555.437 56.596 556.761 C 13.217 570.499 -13.634 599.175 -13.634 617.87 C -13.634 624.061 -18.642 629.069 -24.833 629.069 C -31.025 629.069 -36.032 624.061 -36.032 617.87 C -36.032 590.253 -9.192 560.667 30.097 542.948 C 6.503 521.925 -7.091 492.057 -7.091 459.671 C -7.091 397.917 43.155 347.671 104.909 347.671 C 166.663 347.671 216.909 397.917 216.909 459.671 C 216.909 492.058 203.304 521.929 179.71 542.948 C 218.995 560.678 245.835 590.253 245.835 617.87 L 245.834 617.87 Z M 371.994 344.63 L 371.994 398.564 C 371.994 417.474 356.603 432.865 337.693 432.865 L 322.502 432.865 L 273.568 475.279 C 271.49 477.072 268.876 478.013 266.228 478.013 C 264.654 478.013 263.08 477.685 261.591 477.006 C 257.611 475.201 255.052 471.232 255.029 466.858 L 254.896 432.296 C 238.958 429.342 226.853 415.343 226.853 398.566 L 226.853 344.632 C 226.853 325.722 242.244 310.331 261.154 310.331 L 337.693 310.331 C 356.607 310.334 371.994 325.722 371.994 344.632 L 371.994 344.63 Z M 349.596 344.63 C 349.596 338.067 344.26 332.732 337.698 332.732 L 261.159 332.732 C 254.596 332.732 249.261 338.068 249.261 344.63 L 249.261 398.564 C 249.261 405.126 254.597 410.462 261.159 410.462 L 266.057 410.462 C 272.225 410.462 277.237 415.45 277.256 421.618 L 277.334 442.368 L 310.99 413.196 C 313.037 411.434 315.639 410.462 318.33 410.462 L 337.701 410.462 C 344.264 410.462 349.599 405.126 349.599 398.564 L 349.596 344.63 Z M 317.178 345.868 L 289.834 373.212 L 282.244 364.408 C 278.174 359.704 271.131 359.224 266.439 363.236 C 261.759 367.283 261.232 374.349 265.267 379.041 L 280.732 396.979 C 282.767 399.33 285.697 400.74 288.802 400.85 C 288.943 400.862 289.076 400.862 289.216 400.862 C 292.181 400.862 295.037 399.682 297.134 397.58 L 333.009 361.705 C 337.384 357.33 337.384 350.244 333.009 345.869 C 328.638 341.494 321.552 341.494 317.177 345.869 L 317.178 345.868 Z" transform="matrix(1, 0, 0, 1, 82.056763, -230.220642)"/>
</svg>