<svg xmlns="http://www.w3.org/2000/svg" width="64" height="64" stroke="#000" stroke-linecap="round" stroke-linejoin="round" fill="#fff" fill-rule="evenodd"><path fill="#4353ff" d="M0 32C0 14.272 14.272 0 32 0s32 14.272 32 32-14.272 32-32 32S0 49.728 0 32zm41.4-3.8l-2.9 9.14c0-.7-2-15.86-2-15.86-4.6 0-7.04 3.26-8.32 6.72l-3.54 9.16c0-.66-.5-9.08-.5-9.08-.3534-3.7727-3.472-6.6851-7.26-6.78l3.76 22.96c4.8 0 7.4-3.26 8.74-6.72l3-7.8c0 .32 2 14.52 2 14.52 4.0278-.0052 7.5882-2.6188 8.8-6.46l6.8-16.52c-4.8 0-7.32 3.26-8.6 6.72z" stroke="none"/></svg>